<?xml version="1.0" encoding="utf-8"?>
<!-- Generator: Adobe Illustrator 24.1.1, SVG Export Plug-In . SVG Version: 6.00 Build 0)  -->
<svg version="1.1"
	 id="svg2" inkscape:version="1.0 (1.0+r73+1)" sodipodi:docname="flipkart-ico.svg" xmlns:cc="http://creativecommons.org/ns#" xmlns:dc="http://purl.org/dc/elements/1.1/" xmlns:inkscape="http://www.inkscape.org/namespaces/inkscape" xmlns:rdf="http://www.w3.org/1999/02/22-rdf-syntax-ns#" xmlns:sodipodi="http://sodipodi.sourceforge.net/DTD/sodipodi-0.dtd" xmlns:svg="http://www.w3.org/2000/svg"
	 xmlns="http://www.w3.org/2000/svg" xmlns:xlink="http://www.w3.org/1999/xlink" x="0px" y="0px" viewBox="0 0 130.4 128"
	 style="enable-background:new 0 0 130.4 128;" xml:space="preserve">
<path d="M129.9,21.9c-0.1-0.2-0.1-0.4-0.2-0.5c-43,0-85.9,0-128.9,0c-0.1,0.1-0.2,0.3-0.2,0.4c0,33.3,0,66.6,0,99.9
	c0.3,1.8,1.3,3.4,2.6,4.6c0.1,0,0.2,0,0.2,0.1c0.7,0.7,1.6,1.1,2.5,1.4c0.7,0,1.3,0.3,2,0.2c17.8,0,35.5,0,53.3,0
	c0.5,0,1,0.1,1.5-0.1c0-0.1,0-0.2,0.1-0.3c0-0.1,0-0.3,0.1-0.4c1.1-6.4,2.2-12.8,3.5-19.2c0-0.3,0.1-0.5,0.1-0.8
	c-4.9,0-9.9,0-14.8,0c-1.2,0-2.4,0-3.6-0.1c-2-0.1-4.1,0-6.2-0.2c-2.5,0-5.1-0.2-7.6-0.2c-2-0.2-4-0.1-6-0.2c-1.3-0.2-2.6-0.1-4-0.1
	c-2.2-0.2-4.4-0.1-6.5-0.3c-2.3,0-4.6-0.2-6.9-0.2c0,0,0-0.1,0-0.1c0.8,0,1.5,0,2.3-0.1c1.7-0.2,3.4-0.1,5.1-0.3
	c1.8,0,3.5-0.2,5.3-0.2c1.6-0.2,3.1-0.1,4.7-0.3c1.8,0,3.6-0.2,5.5-0.3c1.5-0.2,3-0.1,4.5-0.3c1.8,0,3.5-0.3,5.3-0.2
	c1.7-0.2,3.5-0.1,5.2-0.3c-0.2-0.7-0.3-1.3-0.4-2c-0.1-0.4-0.6-0.3-1-0.4c-3.9-0.6-7.9-1.1-11.8-1.7c0.3-0.2,0.6-0.1,0.9-0.1
	c3-0.2,6.1-0.5,9.1-0.7c0.7,0,1.4-0.2,2-0.2c-0.3-0.9-0.5-2-0.9-2.8c-6.5-1-13-1.9-19.5-3c1.7-0.3,3.4-0.4,5.1-0.6l0.1-0.1
	c5.4-0.6,10.8-1.2,16.2-1.7c6.8,0,13.7,0,20.5,0c0.2,0,0.6,0.1,0.6-0.2c0.6-2.9,1.1-5.9,1.7-8.8c0.8-4.1,2-8.1,3.9-11.8
	c3-6,7.7-11.1,13.5-14.4c5.4-3.2,11.6-4.7,17.8-5c2-0.2,4-0.1,6,0.1c1.3,0.3,2.6,0.7,3.7,1.6c0.9,0.7,1.4,1.7,1.7,2.7
	c0.8,2.4,1.3,4.9,1.7,7.4c0,1,0.2,2.2-0.3,3.1c-0.5,0.9-1.5,1.3-2.5,1.6c-3.5,0.9-7.2,0.1-10.7,0.9c-2.9,0.6-5.6,2.2-7.4,4.5
	c-2.2,2.7-3.3,6-3.9,9.4c-0.5,3-1.1,5.9-1.6,8.9c3.4,0,6.9,0,10.4,0c1.4,0,2.8,0.8,3.4,2.1c0.7,1.7,0.6,3.6,0.3,5.3
	c-0.3,2-0.8,3.9-1.7,5.8c-0.7,1.5-2,3-3.7,3.5c-0.9,0.3-1.8,0.3-2.7,0.3c-3,0-6.1,0-9.1,0c-0.5,2.2-0.8,4.5-1.3,6.8
	c-0.8,4.4-1.6,8.8-2.4,13.3c0,0.1,0,0.5,0,0.6c1.4,0.1,2.9,0,4.3,0c10.6,0,21.3,0,31.9,0c1.1,0,2.3-0.2,3.3-0.8c0.6-0.2,1-0.7,1.5-1
	c0.5-0.3,0.7-0.9,1.1-1.3c0.5-0.8,1-1.7,1-2.7c0.1,0,0.2,0,0.3,0C129.9,88.7,129.9,55.3,129.9,21.9z M96.7,28.5
	c-0.2,0.7-0.6,1.2-1,1.5c-0.2,0.2-0.6,0.4-0.9,0.4c0,0,0,0,0,0.1c0.1,0.7-0.2,1.4-0.2,2.1c0,0.1-0.1,0.2-0.2,0.3
	c-0.3,2.2-1.2,4.4-2.2,6.4c-0.1,0.1-0.2,0.2-0.2,0.3l0.1,0.1c0,0.1-0.1,0.1-0.2,0.2c-0.5,0.9-1.1,1.7-1.7,2.6
	c-0.1,0.1-0.1,0.3-0.2,0.4l-0.1-0.1c-0.7,1-1.6,1.8-2.4,2.7c-0.2,0.2-0.3,0.3-0.5,0.4c-0.7,0.6-1.5,1.2-2.2,1.7
	c-0.1,0.1-0.3,0.2-0.4,0.3l-0.1-0.1c-4.7,3.3-10.5,4.7-16.1,5.2c-1.8,0-3.6,0.1-5.4,0c-0.4-0.1-0.8-0.1-1.3-0.1
	c-3.8-0.4-7.5-1.5-11-3.1c-0.1,0-0.2-0.1-0.3-0.2c-1.1-0.4-2-1.1-3-1.7c-0.2-0.1-0.3-0.2-0.5-0.3c-0.8-0.6-1.5-1.1-2.3-1.7
	c-0.2-0.1-0.3-0.2-0.4-0.4c-0.7-0.7-1.4-1.3-2.2-2c-0.1-0.1-0.2-0.1-0.2-0.3c-3.3-3.5-5.7-8.2-6.1-13c-0.3,0-0.7-0.2-0.8-0.4
	c-0.4-0.4-0.8-0.8-1-1.5c-0.2-0.6-0.5-2.2,0.9-2.9c1.1-0.6,2-0.1,2.5,0.1c0.9-0.2,2,0.3,2.5,1.2c0.1,2.3,0,4.6,0.8,6.8
	c0.8,2.7,2.4,5.2,4.3,7.3c0.1,0.1,0.3,0.3,0.4,0.5c0.6,0.6,1.2,1.2,1.9,1.7c0.2,0.2,0.4,0.3,0.6,0.5c0.6,0.5,1.2,0.9,1.9,1.3
	c0.2,0.1,0.3,0.2,0.5,0.2c0.7,0.5,1.4,0.8,2.1,1.2c0.1,0,0.3,0.1,0.3,0.1c4.2,2,8.9,3,13.6,2.9c5.5-0.1,11.1-1.3,15.8-4.4
	c0.1-0.1,0.2-0.1,0.3-0.2c0.7-0.5,1.4-1,2-1.6c0.1-0.1,0.2-0.2,0.3-0.2c0.5-0.5,1-1,1.5-1.6c0.1-0.1,0.2-0.2,0.3-0.3
	c0.7-0.9,1.3-1.7,1.9-2.7c0.1-0.3,0.2-0.5,0.3-0.7c0.8-1.5,1.5-3.2,1.8-4.9c0-0.3,0.1-0.5,0.2-0.7c0.1-0.7,0.2-1.5,0.2-2.2
	c0-0.1,0-0.2,0-0.3c0-1.1-0.3-2.4,0.4-3.3c0.4-0.6,1.2-0.6,1.9-0.6c0.3,0,0.5,0.1,0.7,0.2c0.5-0.2,1.3-0.4,2.2,0
	C97.2,26.2,96.8,27.9,96.7,28.5z"/>
<g>
	<polygon points="117.5,9.7 117.5,19.3 129.9,19.3 	"/>
	<path d="M118.8,4l4-1.2L115.3,0H67h-0.8H15.9L8,2.8L12.2,4c0.9,0.3,1.6,0.9,2,1.7l0.5,1C14.8,7,15,7.8,15,8v11.4h51.2H67h49.1V8
		c0-0.2,0.3-1,0.4-1.2l0.4-1C117.2,4.9,117.9,4.3,118.8,4z"/>
	<path d="M118.4,6.2l-0.4,1c-0.1,0.3,0,0.6,0.2,0.8l5.5,4.5V3.9l-4,1.2C119.1,5.3,118.7,5.7,118.4,6.2z"/>
	<polygon points="13.6,19.3 13.6,9.7 0.6,19.3 	"/>
	<path d="M13.1,7.3l-0.5-1c-0.2-0.5-0.7-1-1.3-1.1L7.1,3.9v8.6L12.9,8C13.1,7.9,13.2,7.5,13.1,7.3z"/>
</g>
</svg>
