<?xml version="1.0" encoding="UTF-8" standalone="no"?>
<svg
   xmlns:dc="http://purl.org/dc/elements/1.1/"
   xmlns:cc="http://creativecommons.org/ns#"
   xmlns:rdf="http://www.w3.org/1999/02/22-rdf-syntax-ns#"
   xmlns:svg="http://www.w3.org/2000/svg"
   xmlns="http://www.w3.org/2000/svg"
   xmlns:sodipodi="http://sodipodi.sourceforge.net/DTD/sodipodi-0.dtd"
   xmlns:inkscape="http://www.inkscape.org/namespaces/inkscape"
   width="32"
   height="32"
   viewBox="0 0 32 32"
   version="1.1"
   id="svg74"
   sodipodi:docname="gsoc.svg"
   inkscape:version="1.0 (1.0+r73+1)">
  <metadata
     id="metadata80">
    <rdf:RDF>
      <cc:Work
         rdf:about="">
        <dc:format>image/svg+xml</dc:format>
        <dc:type
           rdf:resource="http://purl.org/dc/dcmitype/StillImage" />
      </cc:Work>
    </rdf:RDF>
  </metadata>
  <defs
     id="defs78" />
  <sodipodi:namedview
     inkscape:document-rotation="0"
     pagecolor="#ffffff"
     bordercolor="#666666"
     borderopacity="1"
     objecttolerance="10"
     gridtolerance="10"
     guidetolerance="10"
     inkscape:pageopacity="0"
     inkscape:pageshadow="2"
     inkscape:window-width="1417"
     inkscape:window-height="961"
     id="namedview76"
     showgrid="false"
     inkscape:zoom="18.230097"
     inkscape:cx="14.352887"
     inkscape:cy="15.513614"
     inkscape:window-x="0"
     inkscape:window-y="27"
     inkscape:window-maximized="0"
     inkscape:current-layer="g72" />
  <title
     id="title64">Group</title>
  <g
     fill="none"
     id="g72">
    <path
       d="M 16 0.01953125 L 11.330078 4.7207031 L 4.6992188 4.7207031 L 4.6992188 11.359375 L 0.0390625 16.039062 L 4.7109375 20.740234 L 4.7109375 27.369141 L 11.339844 27.369141 L 16 32.050781 L 20.679688 27.369141 L 27.300781 27.369141 L 27.300781 20.730469 L 31.970703 16.029297 L 27.300781 11.359375 L 27.300781 4.7207031 L 20.679688 4.7207031 L 16 0.01953125 z M 16 4.6191406 C 19.16 4.6191406 22.000547 5.9009375 24.060547 7.9609375 C 26.120547 10.040938 27.400391 12.889062 27.400391 16.039062 C 27.400391 19.199062 26.120547 22.059141 24.060547 24.119141 C 22.000547 26.189141 19.15 27.470703 16 27.470703 C 12.86 27.470703 9.9994531 26.199141 7.9394531 24.119141 C 5.8794531 22.059141 4.5996094 19.199063 4.5996094 16.039062 C 4.5996094 12.889062 5.8794531 10.030938 7.9394531 7.9609375 C 9.9994531 5.9009375 12.86 4.6191406 16 4.6191406 z M 15.990234 6.0703125 C 13.240234 6.0703125 10.760938 7.2 8.9609375 9 C 7.1609375 10.8 6.0703125 13.269297 6.0703125 16.029297 C 6.0703125 18.789297 7.1707031 21.269844 8.9707031 23.089844 C 10.770703 24.889844 13.25 25.990234 16 25.990234 C 18.75 25.990234 21.229297 24.889844 23.029297 23.089844 C 24.829297 21.279844 25.949219 18.799062 25.949219 16.039062 C 25.949219 13.299062 24.829297 10.8 23.029297 9 C 21.229297 7.2 18.740234 6.0703125 15.990234 6.0703125 z M 16.5 11.039062 L 17.839844 11.039062 L 17.759766 11.400391 L 15.580078 20.980469 L 15.580078 21.050781 L 14.240234 21.050781 L 14.320312 20.679688 L 16.5 11.099609 L 16.5 11.039062 z M 13.070312 12.339844 L 13.070312 14 L 10.419922 16.039062 L 13.050781 18.099609 L 13.050781 19.759766 L 12.880859 19.609375 L 8.9804688 16.560547 L 8.7207031 16.359375 L 8.7207031 15.730469 L 8.9707031 15.529297 L 12.890625 12.480469 L 13.070312 12.339844 z M 18.919922 12.339844 L 18.929688 12.349609 L 19.109375 12.490234 L 23.009766 15.539062 L 23.259766 15.740234 L 23.259766 16.369141 L 23 16.570312 L 19.099609 19.609375 L 18.919922 19.740234 L 18.919922 18.099609 L 21.550781 16.039062 L 18.919922 14 L 18.919922 12.339844 z "
       style="fill:#000000;fill-opacity:1"
       id="path66" />
  </g>
</svg>
