<svg width="748" height="149.3" xmlns="http://www.w3.org/2000/svg">

 <g>
  <title>background</title>
  <rect fill="none" id="canvas_background" height="602" width="802" y="-1" x="-1"/>
 </g>
 <g>
  <title>Layer 1</title>
  <g id="layer1">
   <g id="g3091">
    <path id="svg_1" d="m640.234331,125.21366l-631.9,0c-1.4,0 -2.5,-1.1 -2.5,-2.5s1.1,-2.5 2.5,-2.5l626.8,0l0,-37.4l32,0l0,-32l72.4,0c1.4,0 2.5,1.1 2.5,2.5s-1.1,2.5 -2.5,2.5l-67.4,0l0,32l-32,0l0,37.4l0.1,0z" fill="#000"/>
    <path id="svg_2" d="m116.534331,57.51366c-2.5,-2.5 -5.4,-4.5 -8.6,-5.8c-3.3,-1.4 -6.8,-2.1 -10.5,-2.1s-7.2,0.7 -10.5,2.1c-3.2,1.3 -6.1,3.3 -8.6,5.8c-2.5,2.5 -4.5,5.4 -5.8,8.6c-1.4,3.3 -2.1,6.8 -2.1,10.5s0.7,7.2 2.1,10.5c1.3,3.2 3.3,6.1 5.8,8.6c2.5,2.5 5.4,4.5 8.6,5.8c3.3,1.4 6.8,2.1 10.5,2.1s7.2,-0.7 10.5,-2.1c3.2,-1.3 6.1,-3.3 8.6,-5.8c2.5,-2.5 4.5,-5.4 5.8,-8.6c1.4,-3.3 2.1,-6.8 2.1,-10.5s-0.7,-7.2 -2.1,-10.5c-1.4,-3.2 -3.3,-6.1 -5.8,-8.6zm-0.5,19c0,5 -1.9,9.7 -5.4,13.1c-3.5,3.5 -8.2,5.4 -13.1,5.4s-9.7,-1.9 -13.1,-5.4c-3.5,-3.5 -5.4,-8.2 -5.4,-13.1s1.9,-9.7 5.4,-13.1c3.5,-3.5 8.2,-5.4 13.1,-5.4s9.7,1.9 13.1,5.4c3.4,3.5 5.4,8.1 5.4,13.1z" fill="#000"/>
    <path id="svg_3" d="m181.634331,80.21366c0,4 -1.6,7.7 -4.4,10.5c-2.8,2.8 -6.5,4.4 -10.5,4.4s-7.7,-1.6 -10.5,-4.4c-2.8,-2.8 -4.4,-6.5 -4.4,-10.5l0,-30.7l-8.4,0l0,30.7c0,3.2 0.6,6.3 1.8,9.1c1.2,2.8 2.8,5.3 5,7.4c2.1,2.1 4.6,3.8 7.4,5c2.8,1.2 5.9,1.8 9.1,1.8s6.3,-0.6 9.1,-1.8c2.8,-1.2 5.3,-2.8 7.4,-5c2.1,-2.1 3.8,-4.6 5,-7.4c1.2,-2.8 1.8,-5.9 1.8,-9.1l0,-30.7l-8.4,0l0,30.7z" fill="#000"/>
    <polygon id="svg_4" points="208.9343367666006,58.013671875 226.33433066308498,58.013671875 226.33433066308498,103.513671875 234.83433066308498,103.513671875 234.83433066308498,58.013671875 252.1343337148428,58.013671875 252.1343337148428,49.513671875 208.9343367666006,49.513671875 " fill="#000"/>
    <path id="svg_5" d="m308.134331,77.81366c3.1,-3.1 4.9,-7.3 4.9,-11.7c0,-4.4 -1.7,-8.5 -4.9,-11.7c-3.1,-3.1 -7.3,-4.9 -11.7,-4.9l-23.6,0l0,54l8.4,0l0,-20.9l8.2,0l14.8,20.9l10.3,0l-15,-21.2c3.3,-0.6 6.3,-2.2 8.6,-4.5zm-3.6,-11.8c0,4.5 -3.6,8.2 -8.1,8.2l-15.1,0l0,-16.2l15.1,0c4.5,0 8.1,3.6 8.1,8z" fill="#000"/>
    <polygon id="svg_6" points="344.834330663085,78.81365966796875 365.834330663085,78.81365966796875 365.834330663085,70.41366577148438 344.834330663085,70.41366577148438 344.834330663085,58.013671875 369.53434287011623,58.013671875 369.53434287011623,49.513671875 336.4343367666006,49.513671875 336.4343367666006,103.513671875 371.13431845605373,103.513671875 371.13431845605373,95.1136474609375 344.834330663085,95.1136474609375 " fill="#000"/>
    <path id="svg_7" d="m412.634331,49.51366l-24.1,54l9.3,0l5.4,-12l27.6,0l5.4,12l9.3,0l-24.2,-54l-8.7,0zm14.4,33.6l-20.1,0l10,-22.5l10.1,22.5z" fill="#000"/>
    <path id="svg_8" d="m484.334331,58.01366c5,0 9.7,1.9 13.1,5.4l0.8,0.8l5.9,-5.9l-0.8,-0.8c-2.5,-2.5 -5.4,-4.5 -8.6,-5.8c-3.3,-1.4 -6.8,-2.1 -10.5,-2.1c-3.6,0 -7.2,0.7 -10.5,2.1c-3.2,1.3 -6.1,3.3 -8.6,5.8c-2.5,2.5 -4.5,5.4 -5.8,8.6c-1.4,3.3 -2.1,6.8 -2.1,10.5s0.7,7.2 2.1,10.5c1.3,3.2 3.3,6.1 5.8,8.6c2.5,2.5 5.4,4.5 8.6,5.8c3.3,1.4 6.8,2.1 10.5,2.1c3.6,0 7.2,-0.7 10.5,-2.1c3.2,-1.3 6.1,-3.3 8.6,-5.8l0.8,-0.8l-5.9,-5.9l-0.8,0.8c-3.5,3.5 -8.2,5.4 -13.1,5.4s-9.7,-1.9 -13.1,-5.4c-3.5,-3.5 -5.4,-8.2 -5.4,-13.1c0,-5 1.9,-9.7 5.4,-13.1c3.5,-3.7 8.1,-5.6 13.1,-5.6z" fill="#000"/>
    <polygon id="svg_9" points="558.6343184560537,50.81365966796875 557.5343428701162,50.81365966796875 557.5343428701162,70.6136474609375 531.1343184560537,70.6136474609375 531.1343184560537,49.713653564453125 522.7343550771475,49.713653564453125 522.7343550771475,103.513671875 531.1343184560537,103.513671875 531.1343184560537,79.1136474609375 557.5343428701162,79.1136474609375 557.5343428701162,103.71365356445312 565.9343062490225,103.71365356445312 565.9343062490225,49.713653564453125 558.6343184560537,49.713653564453125 " fill="#000"/>
    <polygon id="svg_10" points="620.4343062490225,49.513671875 620.4343062490225,50.6136474609375 620.4343062490225,50.6136474609375 620.4343062490225,50.6136474609375 620.4343062490225,50.6136474609375 619.5343428701162,50.013671875 607.0343428701162,67.41366577148438 594.334330663085,49.513671875 583.9343062490225,49.513671875 602.834330663085,76.013671875 602.834330663085,103.513671875 611.2343550771475,103.513671875 611.2343550771475,76.013671875 630.2343550771475,49.513671875 " fill="#000"/>
   </g>
  </g>
 </g>
</svg>